<?xml version="1.0" encoding="utf-8"?>
<svg version="1.1" xmlns:xlink="http://www.w3.org/1999/xlink" width="141px" height="61px" xmlns="http://www.w3.org/2000/svg">
  <defs>
    <pattern id="BGPattern" patternUnits="userSpaceOnUse" alignment="0 0" imageRepeat="None" />
    <mask fill="white" id="Clip18">
      <path d="M 110.00540540540544 61  L 0.762162162162191 61  L 5.843243243243273 59.966101694915324  L 31.756756756756758 30.5  L 5.843243243243273 1.0338983050846764  L 0.7614866322096624 0  L 110.00540540540544 0  L 115.08648648648652 1.0338983050846764  L 141 30.5  L 115.08648648648652 59.966101694915324  L 110.00540540540544 61  Z " fill-rule="evenodd" />
    </mask>
  </defs>
  <g transform="matrix(1 0 0 1 0 -602 )">
    <path d="M 110.00540540540544 61  L 0.762162162162191 61  L 5.843243243243273 59.966101694915324  L 31.756756756756758 30.5  L 5.843243243243273 1.0338983050846764  L 0.7614866322096624 0  L 110.00540540540544 0  L 115.08648648648652 1.0338983050846764  L 141 30.5  L 115.08648648648652 59.966101694915324  L 110.00540540540544 61  Z " fill-rule="nonzero" fill="rgba(185, 242, 177, 1)" stroke="none" transform="matrix(1 0 0 1 0 602 )" class="fill" />
    <path d="M 110.00540540540544 61  L 0.762162162162191 61  L 5.843243243243273 59.966101694915324  L 31.756756756756758 30.5  L 5.843243243243273 1.0338983050846764  L 0.7614866322096624 0  L 110.00540540540544 0  L 115.08648648648652 1.0338983050846764  L 141 30.5  L 115.08648648648652 59.966101694915324  L 110.00540540540544 61  Z " stroke-width="8" stroke-dasharray="0" stroke="rgba(255, 255, 255, 1)" fill="none" transform="matrix(1 0 0 1 0 602 )" class="stroke" mask="url(#Clip18)" />
  </g>
</svg>