<?xml version="1.0" encoding="utf-8"?>
<svg version="1.1" xmlns:xlink="http://www.w3.org/1999/xlink" width="156px" height="61px" xmlns="http://www.w3.org/2000/svg">
  <defs>
    <pattern id="BGPattern" patternUnits="userSpaceOnUse" alignment="0 0" imageRepeat="None" />
    <mask fill="white" id="Clip24">
      <path d="M 120.60900900900904 61  L 0.7999999999999545 61  L 1.6720720720721116 59.966101694915324  L 31.261261261261268 30.5  L 1.6720720720721116 1.0338983050846764  L 0.7999999999999545 0  L 120.60900900900904 0  L 126.41081081081086 1.0338983050846764  L 156 30.5  L 126.41081081081086 59.966101694915324  L 120.60900900900904 61  Z " fill-rule="evenodd" />
    </mask>
  </defs>
  <g transform="matrix(1 0 0 1 -103 -601 )">
    <path d="M 120.60900900900904 61  L 0.7999999999999545 61  L 1.6720720720721116 59.966101694915324  L 31.261261261261268 30.5  L 1.6720720720721116 1.0338983050846764  L 0.7999999999999545 0  L 120.60900900900904 0  L 126.41081081081086 1.0338983050846764  L 156 30.5  L 126.41081081081086 59.966101694915324  L 120.60900900900904 61  Z " fill-rule="nonzero" fill="rgba(14, 77, 146, 1)" stroke="none" transform="matrix(1 0 0 1 103 601 )" class="fill" />
    <path d="M 120.60900900900904 61  L 0.7999999999999545 61  L 1.6720720720721116 59.966101694915324  L 31.261261261261268 30.5  L 1.6720720720721116 1.0338983050846764  L 0.7999999999999545 0  L 120.60900900900904 0  L 126.41081081081086 1.0338983050846764  L 156 30.5  L 126.41081081081086 59.966101694915324  L 120.60900900900904 61  Z " stroke-width="8" stroke-dasharray="0" stroke="rgba(255, 255, 255, 1)" fill="none" transform="matrix(1 0 0 1 103 601 )" class="stroke" mask="url(#Clip24)" />
  </g>
</svg>