<?xml version="1.0" encoding="utf-8"?>
<svg version="1.1" xmlns:xlink="http://www.w3.org/1999/xlink" width="24px" height="24px" xmlns="http://www.w3.org/2000/svg">
  <defs>
    <pattern id="BGPattern" patternUnits="userSpaceOnUse" alignment="0 0" imageRepeat="None" />
    <mask fill="white" id="Clip27">
      <path d="M 3.0703125 10.875  L 0.051562500000000004 10.875  C 0.28125 8.404687500000001  1.2609374999999998 6.1546875000000005  2.7562499999999996 4.3453125  L 4.8890625 6.4781249999999995  C 3.9234375000000004 7.7250000000000005  3.2765625000000003 9.2296875  3.0703125 10.875  Z M 10.875 3.0703125  C 9.2296875 3.2765625000000003  7.7250000000000005 3.9234375000000004  6.4828125000000005 4.8890625  L 4.3453125 2.7562499999999996  C 6.1546875000000005 1.2609374999999998  8.404687500000001 0.28125  10.875 0.051562500000000004  L 10.875 3.0703125  Z M 13.125 23.948437499999997  L 13.125 20.9296875  C 14.770312500000001 20.723437500000003  16.275 20.0765625  17.5171875 19.1109375  L 19.65 21.24375  C 17.8453125 22.739062500000003  15.595312499999999 23.71875  13.125 23.948437499999997  Z M 19.1109375 17.521875  L 19.1109375 17.5171875  C 20.0765625 16.2703125  20.728125 14.765625  20.9296875 13.125  L 23.948437499999997 13.125  C 23.71875 15.595312499999999  22.7390625 17.8453125  21.24375 19.6546875  L 19.1109375 17.521875  Z M 4.340624999999998 21.24375  L 4.3453125 21.24375  L 6.4781249999999995 19.1109375  C 7.725 20.0765625  9.229687499999999 20.728125  10.870312499999999 20.9296875  L 10.870312499999999 23.948437499999997  C 8.399999999999999 23.71875  6.1499999999999995 22.7390625  4.340624999999998 21.24375  Z M 4.8890625 17.5171875  L 2.7562499999999996 19.6546875  C 1.2609374999999998 17.8453125  0.28125 15.595312499999999  0.051562500000000004 13.125  L 3.0703125 13.125  C 3.2765625000000003 14.770312500000001  3.9234375000000004 16.275  4.8890625 17.5171875  Z M 13.125 0.051562499999999734  C 15.595312499999999 0.28125  17.8453125 1.2609374999999998  19.6546875 2.7562499999999996  L 17.521875 4.8890625  C 16.275 3.9234375000000004  14.770312500000001 3.2765625000000003  13.125 3.0703125  L 13.125 0.051562499999999734  Z M 19.1109375 6.487500000000002  L 19.1109375 6.4828125000000005  L 21.24375 4.3500000000000005  C 22.7390625 6.1546875000000005  23.71875 8.409375  23.948437499999997 10.879687500000001  L 20.9296875 10.879687500000001  C 20.723437500000003 9.234375000000002  20.0765625 7.729687500000002  19.1109375 6.487500000000002  Z " fill-rule="evenodd" />
    </mask>
  </defs>
  <g transform="matrix(1 0 0 1 -404 -622 )">
    <path d="M 3.0703125 10.875  L 0.051562500000000004 10.875  C 0.28125 8.404687500000001  1.2609374999999998 6.1546875000000005  2.7562499999999996 4.3453125  L 4.8890625 6.4781249999999995  C 3.9234375000000004 7.7250000000000005  3.2765625000000003 9.2296875  3.0703125 10.875  Z M 10.875 3.0703125  C 9.2296875 3.2765625000000003  7.7250000000000005 3.9234375000000004  6.4828125000000005 4.8890625  L 4.3453125 2.7562499999999996  C 6.1546875000000005 1.2609374999999998  8.404687500000001 0.28125  10.875 0.051562500000000004  L 10.875 3.0703125  Z M 13.125 23.948437499999997  L 13.125 20.9296875  C 14.770312500000001 20.723437500000003  16.275 20.0765625  17.5171875 19.1109375  L 19.65 21.24375  C 17.8453125 22.739062500000003  15.595312499999999 23.71875  13.125 23.948437499999997  Z M 19.1109375 17.521875  L 19.1109375 17.5171875  C 20.0765625 16.2703125  20.728125 14.765625  20.9296875 13.125  L 23.948437499999997 13.125  C 23.71875 15.595312499999999  22.7390625 17.8453125  21.24375 19.6546875  L 19.1109375 17.521875  Z M 4.340624999999998 21.24375  L 4.3453125 21.24375  L 6.4781249999999995 19.1109375  C 7.725 20.0765625  9.229687499999999 20.728125  10.870312499999999 20.9296875  L 10.870312499999999 23.948437499999997  C 8.399999999999999 23.71875  6.1499999999999995 22.7390625  4.340624999999998 21.24375  Z M 4.8890625 17.5171875  L 2.7562499999999996 19.6546875  C 1.2609374999999998 17.8453125  0.28125 15.595312499999999  0.051562500000000004 13.125  L 3.0703125 13.125  C 3.2765625000000003 14.770312500000001  3.9234375000000004 16.275  4.8890625 17.5171875  Z M 13.125 0.051562499999999734  C 15.595312499999999 0.28125  17.8453125 1.2609374999999998  19.6546875 2.7562499999999996  L 17.521875 4.8890625  C 16.275 3.9234375000000004  14.770312500000001 3.2765625000000003  13.125 3.0703125  L 13.125 0.051562499999999734  Z M 19.1109375 6.487500000000002  L 19.1109375 6.4828125000000005  L 21.24375 4.3500000000000005  C 22.7390625 6.1546875000000005  23.71875 8.409375  23.948437499999997 10.879687500000001  L 20.9296875 10.879687500000001  C 20.723437500000003 9.234375000000002  20.0765625 7.729687500000002  19.1109375 6.487500000000002  Z " fill-rule="nonzero" fill="rgba(51, 51, 51, 1)" stroke="none" transform="matrix(1 0 0 1 404 622 )" class="fill" />
    <path d="M 3.0703125 10.875  L 0.051562500000000004 10.875  C 0.28125 8.404687500000001  1.2609374999999998 6.1546875000000005  2.7562499999999996 4.3453125  L 4.8890625 6.4781249999999995  C 3.9234375000000004 7.7250000000000005  3.2765625000000003 9.2296875  3.0703125 10.875  Z " stroke-width="0" stroke-dasharray="0" stroke="rgba(255, 255, 255, 0)" fill="none" transform="matrix(1 0 0 1 404 622 )" class="stroke" mask="url(#Clip27)" />
    <path d="M 10.875 3.0703125  C 9.2296875 3.2765625000000003  7.7250000000000005 3.9234375000000004  6.4828125000000005 4.8890625  L 4.3453125 2.7562499999999996  C 6.1546875000000005 1.2609374999999998  8.404687500000001 0.28125  10.875 0.051562500000000004  L 10.875 3.0703125  Z " stroke-width="0" stroke-dasharray="0" stroke="rgba(255, 255, 255, 0)" fill="none" transform="matrix(1 0 0 1 404 622 )" class="stroke" mask="url(#Clip27)" />
    <path d="M 13.125 23.948437499999997  L 13.125 20.9296875  C 14.770312500000001 20.723437500000003  16.275 20.0765625  17.5171875 19.1109375  L 19.65 21.24375  C 17.8453125 22.739062500000003  15.595312499999999 23.71875  13.125 23.948437499999997  Z " stroke-width="0" stroke-dasharray="0" stroke="rgba(255, 255, 255, 0)" fill="none" transform="matrix(1 0 0 1 404 622 )" class="stroke" mask="url(#Clip27)" />
    <path d="M 19.1109375 17.521875  L 19.1109375 17.5171875  C 20.0765625 16.2703125  20.728125 14.765625  20.9296875 13.125  L 23.948437499999997 13.125  C 23.71875 15.595312499999999  22.7390625 17.8453125  21.24375 19.6546875  L 19.1109375 17.521875  Z " stroke-width="0" stroke-dasharray="0" stroke="rgba(255, 255, 255, 0)" fill="none" transform="matrix(1 0 0 1 404 622 )" class="stroke" mask="url(#Clip27)" />
    <path d="M 4.340624999999998 21.24375  L 4.3453125 21.24375  L 6.4781249999999995 19.1109375  C 7.725 20.0765625  9.229687499999999 20.728125  10.870312499999999 20.9296875  L 10.870312499999999 23.948437499999997  C 8.399999999999999 23.71875  6.1499999999999995 22.7390625  4.340624999999998 21.24375  Z " stroke-width="0" stroke-dasharray="0" stroke="rgba(255, 255, 255, 0)" fill="none" transform="matrix(1 0 0 1 404 622 )" class="stroke" mask="url(#Clip27)" />
    <path d="M 4.8890625 17.5171875  L 2.7562499999999996 19.6546875  C 1.2609374999999998 17.8453125  0.28125 15.595312499999999  0.051562500000000004 13.125  L 3.0703125 13.125  C 3.2765625000000003 14.770312500000001  3.9234375000000004 16.275  4.8890625 17.5171875  Z " stroke-width="0" stroke-dasharray="0" stroke="rgba(255, 255, 255, 0)" fill="none" transform="matrix(1 0 0 1 404 622 )" class="stroke" mask="url(#Clip27)" />
    <path d="M 13.125 0.051562499999999734  C 15.595312499999999 0.28125  17.8453125 1.2609374999999998  19.6546875 2.7562499999999996  L 17.521875 4.8890625  C 16.275 3.9234375000000004  14.770312500000001 3.2765625000000003  13.125 3.0703125  L 13.125 0.051562499999999734  Z " stroke-width="0" stroke-dasharray="0" stroke="rgba(255, 255, 255, 0)" fill="none" transform="matrix(1 0 0 1 404 622 )" class="stroke" mask="url(#Clip27)" />
    <path d="M 19.1109375 6.487500000000002  L 19.1109375 6.4828125000000005  L 21.24375 4.3500000000000005  C 22.7390625 6.1546875000000005  23.71875 8.409375  23.948437499999997 10.879687500000001  L 20.9296875 10.879687500000001  C 20.723437500000003 9.234375000000002  20.0765625 7.729687500000002  19.1109375 6.487500000000002  Z " stroke-width="0" stroke-dasharray="0" stroke="rgba(255, 255, 255, 0)" fill="none" transform="matrix(1 0 0 1 404 622 )" class="stroke" mask="url(#Clip27)" />
  </g>
</svg>