<?xml version="1.0" encoding="utf-8"?>
<svg version="1.1" xmlns:xlink="http://www.w3.org/1999/xlink" width="161px" height="61px" xmlns="http://www.w3.org/2000/svg">
  <defs>
    <pattern id="BGPattern" patternUnits="userSpaceOnUse" alignment="0 0" imageRepeat="None" />
    <mask fill="white" id="Clip25">
      <path d="M 125.60900900900904 61  L 0.8702702702703032 61  L 6.672072072072106 59.966101694915324  L 36.26126126126126 30.5  L 6.672072072072106 1.0338983050846764  L 0.8694989204663521 0  L 125.60900900900904 0  L 131.41081081081086 1.0338983050846764  L 161 30.5  L 131.41081081081086 59.966101694915324  L 125.60900900900904 61  Z " fill-rule="evenodd" />
    </mask>
  </defs>
  <g transform="matrix(1 0 0 1 -217 -601 )">
    <path d="M 125.60900900900904 61  L 0.8702702702703032 61  L 6.672072072072106 59.966101694915324  L 36.26126126126126 30.5  L 6.672072072072106 1.0338983050846764  L 0.8694989204663521 0  L 125.60900900900904 0  L 131.41081081081086 1.0338983050846764  L 161 30.5  L 131.41081081081086 59.966101694915324  L 125.60900900900904 61  Z " fill-rule="nonzero" fill="rgba(240, 240, 241, 1)" stroke="none" transform="matrix(1 0 0 1 217 601 )" class="fill" />
    <path d="M 125.60900900900904 61  L 0.8702702702703032 61  L 6.672072072072106 59.966101694915324  L 36.26126126126126 30.5  L 6.672072072072106 1.0338983050846764  L 0.8694989204663521 0  L 125.60900900900904 0  L 131.41081081081086 1.0338983050846764  L 161 30.5  L 131.41081081081086 59.966101694915324  L 125.60900900900904 61  Z " stroke-width="8" stroke-dasharray="0" stroke="rgba(255, 255, 255, 1)" fill="none" transform="matrix(1 0 0 1 217 601 )" class="stroke" mask="url(#Clip25)" />
  </g>
</svg>