<?xml version="1.0" encoding="utf-8"?>
<svg version="1.1" xmlns:xlink="http://www.w3.org/1999/xlink" width="127px" height="61px" xmlns="http://www.w3.org/2000/svg">
  <defs>
    <pattern id="BGPattern" patternUnits="userSpaceOnUse" alignment="0 0" imageRepeat="None" />
    <mask fill="white" id="Clip26">
      <path d="M 120.51148648648649 61  L 0.4273789649415676 61  L 1.6668918918919644 59.96610169491578  L 31.233108108108127 30.5  L 1.6668918918919644 1.0338983050846764  L 0.4273789649415676 0  L 120.51148648648649 0  L 126.30878378378384 0  L 126.30878378378384 31.888024883359325  L 126.30878378378384 61  L 120.51148648648649 61  Z " fill-rule="evenodd" />
    </mask>
  </defs>
  <g transform="matrix(1 0 0 1 -340 -601 )">
    <path d="M 120.51148648648649 61  L 0.4273789649415676 61  L 1.6668918918919644 59.96610169491578  L 31.233108108108127 30.5  L 1.6668918918919644 1.0338983050846764  L 0.4273789649415676 0  L 120.51148648648649 0  L 126.30878378378384 0  L 126.30878378378384 31.888024883359325  L 126.30878378378384 61  L 120.51148648648649 61  Z " fill-rule="nonzero" fill="rgba(240, 240, 241, 1)" stroke="none" transform="matrix(1 0 0 1 340 601 )" class="fill" />
    <path d="M 120.51148648648649 61  L 0.4273789649415676 61  L 1.6668918918919644 59.96610169491578  L 31.233108108108127 30.5  L 1.6668918918919644 1.0338983050846764  L 0.4273789649415676 0  L 120.51148648648649 0  L 126.30878378378384 0  L 126.30878378378384 31.888024883359325  L 126.30878378378384 61  L 120.51148648648649 61  Z " stroke-width="8" stroke-dasharray="0" stroke="rgba(255, 255, 255, 1)" fill="none" transform="matrix(1 0 0 1 340 601 )" class="stroke" mask="url(#Clip26)" />
  </g>
</svg>