<?xml version="1.0" encoding="utf-8"?>
<svg version="1.1" xmlns:xlink="http://www.w3.org/1999/xlink" width="18px" height="24px" xmlns="http://www.w3.org/2000/svg">
  <defs>
    <pattern id="BGPattern" patternUnits="userSpaceOnUse" alignment="0 0" imageRepeat="None" />
    <mask fill="white" id="Clip28">
      <path d="M 7.8890625000000005 23.4  C 8.465625000000001 24.1171875  9.534375 24.1171875  10.110937499999999 23.4  C 12.515625 20.390625  18 13.096874999999999  18 9  C 18 4.03125  13.96875 0  9 0  C 4.03125 0  0 4.03125  0 9  C 0 13.096874999999999  5.484375 20.390625  7.8890625000000005 23.4  Z M 9 6  C 10.65685424949238 6  12 7.34314575050762  12 9  C 12 10.65685424949238  10.65685424949238 12  9 12  C 7.34314575050762 12  6 10.65685424949238  6 9  C 6 7.34314575050762  7.34314575050762 6  9 6  Z " fill-rule="evenodd" />
    </mask>
  </defs>
  <g transform="matrix(1 0 0 1 -173 -622 )">
    <path d="M 7.8890625000000005 23.4  C 8.465625000000001 24.1171875  9.534375 24.1171875  10.110937499999999 23.4  C 12.515625 20.390625  18 13.096874999999999  18 9  C 18 4.03125  13.96875 0  9 0  C 4.03125 0  0 4.03125  0 9  C 0 13.096874999999999  5.484375 20.390625  7.8890625000000005 23.4  Z M 9 6  C 10.65685424949238 6  12 7.34314575050762  12 9  C 12 10.65685424949238  10.65685424949238 12  9 12  C 7.34314575050762 12  6 10.65685424949238  6 9  C 6 7.34314575050762  7.34314575050762 6  9 6  Z " fill-rule="nonzero" fill="rgba(255, 255, 255, 1)" stroke="none" transform="matrix(1 0 0 1 173 622 )" class="fill" />
    <path d="M 7.8890625000000005 23.4  C 8.465625000000001 24.1171875  9.534375 24.1171875  10.110937499999999 23.4  C 12.515625 20.390625  18 13.096874999999999  18 9  C 18 4.03125  13.96875 0  9 0  C 4.03125 0  0 4.03125  0 9  C 0 13.096874999999999  5.484375 20.390625  7.8890625000000005 23.4  Z " stroke-width="0" stroke-dasharray="0" stroke="rgba(255, 255, 255, 0)" fill="none" transform="matrix(1 0 0 1 173 622 )" class="stroke" mask="url(#Clip28)" />
    <path d="M 9 6  C 10.65685424949238 6  12 7.34314575050762  12 9  C 12 10.65685424949238  10.65685424949238 12  9 12  C 7.34314575050762 12  6 10.65685424949238  6 9  C 6 7.34314575050762  7.34314575050762 6  9 6  Z " stroke-width="0" stroke-dasharray="0" stroke="rgba(255, 255, 255, 0)" fill="none" transform="matrix(1 0 0 1 173 622 )" class="stroke" mask="url(#Clip28)" />
  </g>
</svg>